<svg xmlns="http://www.w3.org/2000/svg" viewBox="0 0 34 34"><defs><style>.cls-1{fill:#fff;}.cls-2{fill:#3633c6;}</style></defs><title>资源 15</title><g id="图层_2" data-name="图层 2"><g id="图层_1-2" data-name="图层 1"><circle class="cls-1" cx="17" cy="17" r="17"/><path class="cls-2" d="M24.36,10.3,9.93,15.81h0L7.14,16.87a.55.55,0,0,0-.2.2.47.47,0,0,0,.2.63l4.67,1.55,10-6.25a.19.19,0,0,1,.23.3l-7.83,7.28-.3,4a.15.15,0,0,0,.25.13l2.63-2.3,4.31,3.12A.87.87,0,0,0,22.49,25l3-13.74A.87.87,0,0,0,24.36,10.3Z"/></g></g></svg>