<svg xmlns="http://www.w3.org/2000/svg" viewBox="0 0 34 34"><defs><style>.cls-1{fill:#fff;}.cls-2{fill:#3633c6;}</style></defs><title>资源 14</title><g id="图层_2" data-name="图层 2"><g id="图层_1-2" data-name="图层 1"><circle class="cls-1" cx="17" cy="17" r="17"/><path class="cls-2" d="M25.5,12a3.32,3.32,0,0,1-.83.2c-.4,0-.2-.37-.2-.37,1.13-1,.86-1.49.86-1.49a.28.28,0,0,0-.29,0,3.38,3.38,0,0,1-1.79.38A3.59,3.59,0,0,0,17,13a3.4,3.4,0,0,0,.13,1H17a9.74,9.74,0,0,1-7.56-3.59,3.17,3.17,0,0,0-.38,1.29c0,.1,0,.2,0,.3a3.54,3.54,0,0,0,.23,1.18v0a2.73,2.73,0,0,0,.27.54,2.43,2.43,0,0,1-.22-.46,3.43,3.43,0,0,0,.56.89h0a3.22,3.22,0,0,0,.67.55,2.42,2.42,0,0,1-1,.21A2.35,2.35,0,0,1,9,14.91a3.67,3.67,0,0,0,.54,1.71c0,.37,1,1,1.56,1.42.12.15.41.39.18.45-.7,0-1.1,0-.9.37a4.78,4.78,0,0,0,2.8,2.22A6.26,6.26,0,0,1,9,22.68c-.25,0-.24.3-.09.39A9.1,9.1,0,0,0,19,22.66a8.65,8.65,0,0,0,4.93-7.82c0-.18,0-.35,0-.53a3.58,3.58,0,0,0,.22-1.23V13A3,3,0,0,0,25.5,12Z"/></g></g></svg>